<svg xmlns="http://www.w3.org/2000/svg" width="477.156" height="477.156"><path d="M475.01 380.316l-2.375-7.156c-5.625-16.72-24.062-34.156-41-38.75l-62.688-17.125c-17-4.625-41.25 1.594-53.688 14.03l-22.688 22.688c-82.453-22.28-147.11-86.938-169.36-169.375l22.69-22.69c12.438-12.438 18.656-36.656 14.03-53.656l-17.094-62.72c-4.625-16.97-22.094-35.406-38.78-40.97L96.9 2.2c-16.72-5.563-40.563.063-53 12.5L9.962 48.66C3.9 54.7.024 71.94.024 72.003c-1.187 107.75 41.063 211.562 117.28 287.78 76.03 76.03 179.454 118.22 286.89 117.313.562 0 18.312-3.813 24.375-9.845l33.938-33.938c12.437-12.436 18.062-36.28 12.5-52.998z"/></svg>