<svg style="dispaly:none" baseProfile="full" xmlns="http://www.w3.org/2000/svg" xmlns:xlink="http://www.w3.org/1999/xlink" xmlns:ev="http://www.w3.org/2001/xml-events">

 <symbol id="main-logo" viewBox="0 0 317.5 112.7">

    <path d="M9.1 17.5v50.3h23V74H3.4V17.5h5.7zm30.6 56.4l19.2-56.5h5L83 73.9h-6.2l-5.6-17H51.5l-5.6 17h-6.2zm21.6-47.7l-6 19.2-1.8 5.3h15.6l-1.8-5.3c-1.9-5.8-3.9-12.2-5.9-19.2h-.1zm56.3 47.7h-5.7V17.5H140v6.2h-22.3v18.2h19.8v6.2h-19.8v25.8zm39.9-56.4v50.3h23V74h-28.7V17.5h5.7zm87.4 51.4c1.7 0 3.2-.2 4.6-.7 1.3-.5 2.5-1.2 3.5-2a12.61 12.61 0 0 0 2.5-3.1c.7-1.2 1.2-2.6 1.5-4.1a25.15 25.15 0 0 0 .5-3.1c.1-1.1.1-2.2.1-3.3v-35h5.7v34.9l-.2 4.1c-.1 1.4-.3 2.8-.6 4-.4 2.1-1.1 4-2 5.8s-2.1 3.3-3.5 4.6-3.1 2.3-5.1 3-4.4 1.1-7 1.1-4.8-.3-6.8-1c-1.9-.7-3.6-1.6-5-2.8s-2.5-2.6-3.4-4.3c-.9-1.6-1.6-3.4-2.1-5.4-.4-1.4-.6-2.9-.8-4.5s-.2-3.2-.2-4.7V17.5h5.7v35c0 1.3.1 2.6.2 3.9l.7 3.7c.8 2.7 2.2 4.9 4.1 6.5s4.5 2.3 7.6 2.3zm39.4-18.4v23.4h-5.7V17.5h12.2c2.1 0 3.8.1 5.2.3s2.8.5 4 .9c3.3 1.1 5.8 2.9 7.5 5.5s2.6 5.8 2.6 9.6c0 2.3-.3 4.3-.9 6.1s-1.5 3.4-2.6 4.7-2.4 2.4-4 3.3-3.2 1.5-5.1 1.9v.2l13.9 24.1h-5.7l-14.5-23.4h-6.9zm0-26.8v20.7h5.7l4.5-.2c1.2-.1 2.4-.4 3.3-.8a9.06 9.06 0 0 0 4.6-3.5c1.1-1.6 1.6-3.7 1.6-6.3 0-2.4-.5-4.4-1.5-5.8s-2.4-2.5-4.2-3.2c-.8-.3-1.9-.5-3-.7l-4.5-.2h-6.5z" fill="#5e5e5e"/>
    <path d="M203 80.1c1.2-6.4 1.5-12.5-.6-18.5-1.2-3.4-3-6.4-5.7-8.7-3.7-3.2-8.1-5-12.7-6.5-.2-.1-.4 0-.6 0-1.4 7.9-2.1 15.6 2.8 22.6 4.1 5.9 10.1 8.9 16.8 11.1zm-19.6-37.7c1-.3 1.9-.5 2.8-.9l6.4-2.9c4.1-1.9 6.9-5 8.9-9 1.5-3.1 2.3-6.4 2.4-9.8.2-3.3-.3-6.6-.9-10.1-6.7 2.1-12.7 4.9-16.9 10.7-4.8 6.8-4.1 14.2-2.7 22zm41.8 2.2c-3.7-2.4-7.4-4.6-11.6-5.9-5.4-1.7-10.9-2.3-16.6-1.1-4.8 1.1-9.1 3.5-13.4 6-.2.1-.4.2-.7.3 14.7 10.8 28.6 9.9 42.3.7z" fill="#fff"/>
    <path d="M203 80.1c-6.8-2.2-12.8-5.2-16.9-11.1-4.9-7-4.2-14.7-2.8-22.6h.6c4.6 1.5 9 3.3 12.7 6.5 2.7 2.4 4.5 5.4 5.7 8.7 2.2 6 2 12.1.7 18.5zm-19.6-37.7c-1.5-7.8-2.1-15.3 2.8-22 4.2-5.8 10.2-8.6 16.9-10.7.7 3.5 1.1 6.8.9 10.1-.2 3.4-.9 6.7-2.4 9.8-2 4-4.8 7.1-8.9 9-2.1 1-4.3 2-6.4 2.9-.9.4-1.8.6-2.9.9zm42.2 2.3c-13.6 9.2-27.6 10-42.2-.6.3-.1.5-.2.7-.3 4.2-2.5 8.5-4.9 13.4-6 5.6-1.3 11.1-.6 16.6 1.1 4 1.2 7.7 3.4 11.5 5.8z" fill="#791075"/>
    <path d="M4.2 98.5H2.9V86.6h2.9c.4 0 .8 0 1.2.1l1 .3c.6.3 1.1.6 1.4 1.1.5.5.6 1.2.6 1.9 0 .6-.1 1.1-.3 1.6s-.5.8-.9 1.1-.9.5-1.5.7-1.2.2-2 .2c-.4 0-.7 0-1.1-.1v5zm0-6.2c.2 0 .4 0 .5.1h.5c.6 0 1.1-.1 1.6-.2s.8-.3 1-.5c.3-.2.5-.5.6-.7.1-.3.2-.6.2-1 0-.5-.1-.8-.3-1.1s-.5-.5-.8-.7c-.2-.1-.4-.2-.7-.2s-.6-.1-1-.1H4.2v4.4zm10.1 1.3v4.9H13V86.6h2.7c.5 0 .9 0 1.2.1.3 0 .6.1.9.2.7.2 1.3.6 1.7 1.1s.6 1.2.6 2c0 .5-.1.9-.2 1.3s-.3.7-.6 1c-.2.3-.5.5-.9.7-.3.2-.7.3-1.2.4l3.1 5.1H19l-3.3-4.9h-1.4zm0-5.7v4.3h2.3c.3 0 .5-.1.8-.2.4-.2.8-.4 1-.7s.4-.8.4-1.3-.1-.9-.3-1.2-.5-.5-.9-.7c-.3 0-.6-.1-.8-.1h-2.5zm8 10.6l4.3-11.9h1.1L32 98.5h-1.4l-1.3-3.6H25l-1.3 3.6h-1.4zm4.9-10l-1.4 4-.4 1.1H29l-.4-1.1c-.5-1.2-.9-2.6-1.4-4zm12.3-.8c-.6 0-1.1.1-1.7.3-.5.2-1 .5-1.3.9-.4.4-.7.9-.9 1.6-.2.6-.3 1.3-.3 2.2 0 .8.1 1.5.3 2.1s.5 1.1.9 1.5.8.7 1.4.9c.5.2 1.1.3 1.8.3h.6c.2 0 .4 0 .6-.1.2 0 .4-.1.6-.1s.4-.1.5-.2v1.3c-.3.1-.7.2-1.1.3s-.8.1-1.3.1c-.9 0-1.7-.1-2.3-.4s-1.3-.7-1.7-1.2c-.5-.5-.8-1.1-1-1.9-.2-.7-.4-1.6-.4-2.5s.1-1.8.4-2.5c.3-.8.6-1.4 1.1-2s1-1 1.7-1.3 1.4-.5 2.3-.5h.7c.2 0 .4 0 .6.1.2 0 .4.1.6.1.2.1.3.1.4.2v1.3c-.3-.1-.7-.2-1.1-.3-.6-.2-1-.2-1.4-.2z"/><use xlink:href="#B"/>
    <path d="M63.2 88.6l-.6 2.9-1.6 7h-1.3l-3.2-11.9h1.3l1.8 7 .7 3 .3-1.6.3-1.4 1.6-7h1.3l1.6 7 .7 3 .7-3 1.8-7H70l-3.2 11.9h-1.3l-1.6-7-.7-2.9zM78 93.3l1.9 3.2c-.1-1.2-.1-2.3-.1-3.5v-6.3h1.3v11.9h-1.3L75.6 92l-1.9-3.2c.1 1.1.1 2.3.1 3.8v6.1h-1.3V86.6h1.3l4.2 6.7zm6.6 5.2V86.6h1.3v11.9h-1.3zm3.8 0l4.3-11.9h1.1l4.3 11.9h-1.4l-1.3-3.6H91l-1.3 3.6h-1.3zm4.8-10l-1.4 4-.4 1.1H95l-.4-1.1c-.5-1.2-.9-2.6-1.4-4zm24 4c0 .7-.1 1.3-.2 1.9-.2.6-.4 1.2-.7 1.6-.3.5-.7.9-1.2 1.3s-1 .6-1.6.8c-.4.1-.7.2-1.1.2s-.9.1-1.3.1h-2.4V86.6h2.4c.5 0 .9 0 1.3.1.4 0 .8.1 1.1.2.6.2 1.2.5 1.6.8s.8.8 1.1 1.2.5 1 .7 1.6c.3.7.3 1.3.3 2zm-1.2 0c0-1.1-.2-2.1-.7-2.8s-1.1-1.2-1.9-1.5c-.3-.1-.7-.2-1.1-.2s-.8-.1-1.3-.1h-1v9.3h1c.5 0 .9 0 1.3-.1.4 0 .8-.1 1.1-.2.8-.3 1.5-.8 1.9-1.6.4-.7.7-1.6.7-2.8zm5.6 4.7h5.4v1.3h-6.7V86.6h6.4v1.3h-5.1v3.8h4.6V93h-4.6v4.2zm8.5 1.3V86.6h1.3v5.9l4.9-5.9h1.3l-4.9 5.9 5.2 6h-1.3l-5.2-5.8v5.8h-1.3z"/><use xlink:href="#B" x="95.2"/><path d="M153.9 93.6v4.9h-1.3V86.6h2.7c.5 0 .9 0 1.2.1.3 0 .6.1.9.2.7.2 1.3.6 1.7 1.1s.6 1.2.6 2c0 .5-.1.9-.2 1.3s-.3.7-.6 1c-.2.3-.5.5-.9.7-.3.2-.7.3-1.2.4l3.1 5.1h-1.3l-3.3-4.9h-1.4zm0-5.7v4.3h2.3c.3 0 .5-.1.8-.2.4-.2.8-.4 1-.7s.4-.8.4-1.3-.1-.9-.3-1.2-.5-.5-.9-.7c-.2-.1-.4-.1-.7-.1h-2.6zm8 10.6l4.3-11.9h1.1l4.3 11.9h-1.4l-1.3-3.6h-4.4l-1.3 3.6h-1.3zm4.9-10l-1.4 4-.4 1.1h3.5l-.4-1.1-1.3-4z"/><use xlink:href="#C"/><path d="M186.5 86.6h1.3v9.1c0 .5-.1.9-.2 1.3s-.3.7-.6.9c-.2.2-.5.4-.9.6a3.73 3.73 0 0 1-1.2.2c-.4 0-.7 0-.9-.1-.3-.1-.4-.1-.6-.2v-1.3c.2.1.4.2.6.2s.5.1.7.1.5 0 .7-.1.4-.2.5-.3.3-.3.3-.6.1-.5.1-.9v-8.9zm4.7 11.9V86.6h1.3v11.9h-1.3zm14.2 0h-1.3V86.6h2.9c.4 0 .8 0 1.2.1l1 .3c.6.3 1.1.6 1.4 1.1s.5 1.1.5 1.9c0 .6-.1 1.1-.3 1.6s-.5.8-.9 1.1-.9.5-1.5.7-1.2.2-2 .2c-.4 0-.7 0-1.1-.1v5zm0-6.2c.2 0 .4 0 .5.1h.5c.6 0 1.1-.1 1.6-.2s.8-.3 1-.5.5-.5.6-.7c.1-.3.2-.6.2-1 0-.5-.1-.8-.3-1.1s-.5-.5-.8-.7c-.2-.1-.5-.2-.8-.2s-.6-.1-1-.1h-1.5v4.4zm6.5 6.2l4.3-11.9h1.1l4.3 11.9h-1.4l-1.3-3.6h-4.4l-1.3 3.6h-1.3zm4.8-10l-1.4 4-.4 1.1h3.5l-.4-1.1c-.3-1.2-.8-2.6-1.3-4zm8.6 10H224V86.6h2.9c.4 0 .8 0 1.2.1l1 .3c.6.3 1.1.6 1.4 1.1s.5 1.1.5 1.9c0 .6-.1 1.1-.3 1.6s-.5.8-.9 1.1-.9.5-1.5.7-1.2.2-2 .2c-.4 0-.7 0-1.1-.1v5zm0-6.2c.2 0 .4 0 .5.1h.5c.6 0 1.1-.1 1.6-.2s.8-.3 1-.5.5-.5.6-.7c.1-.3.2-.6.2-1 0-.5-.1-.8-.3-1.1s-.5-.5-.8-.7c-.2-.1-.5-.2-.8-.2s-.6-.1-1-.1h-1.5v4.4zm8.8 6.2V86.6h1.3v11.9h-1.3zm6.1-1.3h5.4v1.3h-6.7V86.6h6.4v1.3h-5.1v3.8h4.6V93h-4.6v4.2zm9.8-3.6v4.9h-1.3V86.6h2.7c.5 0 .9 0 1.2.1.3 0 .6.1.9.2.7.2 1.3.6 1.7 1.1s.6 1.2.6 2c0 .5-.1.9-.2 1.3s-.3.7-.6 1c-.2.3-.5.5-.9.7-.3.2-.7.3-1.2.4l3.1 5.1h-1.3l-3.3-4.9H250zm0-5.7v4.3h2.3c.3 0 .5-.1.8-.2.4-.2.8-.4 1-.7s.4-.8.4-1.3-.1-.9-.3-1.2-.5-.5-.9-.7c-.2-.1-.4-.1-.7-.1H250zm18.6 4.7c0 .9-.1 1.7-.3 2.5s-.6 1.4-1 1.9-.9 1-1.6 1.3c-.6.3-1.3.5-2 .5a4.65 4.65 0 0 1-2.1-.5c-.6-.3-1.1-.7-1.6-1.3-.4-.5-.7-1.2-1-1.9-.2-.8-.3-1.6-.3-2.5s.1-1.7.3-2.5.6-1.4 1-1.9.9-1 1.6-1.3c.6-.3 1.3-.5 2-.5a4.65 4.65 0 0 1 2.1.5c.6.3 1.1.7 1.6 1.3.4.5.7 1.2 1 1.9s.3 1.6.3 2.5zm-1.3 0c0-.8-.1-1.5-.3-2.1s-.4-1.1-.8-1.5a2.73 2.73 0 0 0-1.2-.9c-.4-.2-.9-.3-1.4-.3s-1 .1-1.4.3-.8.5-1.2.9a5.3 5.3 0 0 0-.8 1.5c-.2.6-.3 1.3-.3 2.1s.1 1.5.3 2.1.4 1.1.8 1.5a2.73 2.73 0 0 0 1.2.9c.4.2.9.3 1.4.3s1-.1 1.4-.3.8-.5 1.2-.9a5.3 5.3 0 0 0 .8-1.5c.2-.6.3-1.3.3-2.1zm10.2-4l-.6 2.9-1.6 7H274l-3.2-11.9h1.3l1.8 7 .7 3 .3-1.6.3-1.4 1.6-7h1.3l1.6 7 .7 3 .7-3 1.8-7h1.3l-3.3 11.9h-1.3l-1.6-7-.5-2.9zm13.5 5.1v4.8h-1.3v-4.8l-3.9-7.1h1.4l3.1 5.8 3.1-5.8h1.4l-3.8 7.1z"/><use xlink:href="#C" x="123"/><path d="M308.7 91.8h5.6v-5.1h1.3v11.9h-1.3v-5.4h-5.6v5.4h-1.3v-12h1.3v5.2z"/><defs >
    <path id="B" d="M54.2 92.6c0 .9-.1 1.7-.3 2.5s-.6 1.4-1 1.9-.9 1-1.6 1.3c-.6.3-1.3.5-2 .5a4.65 4.65 0 0 1-2.1-.5c-.6-.3-1.1-.7-1.6-1.3-.4-.5-.7-1.2-1-1.9-.2-.8-.3-1.6-.3-2.5s.1-1.7.3-2.5.6-1.4 1-1.9.9-1 1.6-1.3c.6-.3 1.3-.5 2-.5a4.65 4.65 0 0 1 2.1.5c.6.3 1.1.7 1.6 1.3.4.5.7 1.2 1 1.9s.3 1.6.3 2.5zm-1.3 0c0-.8-.1-1.5-.3-2.1s-.4-1.1-.8-1.5-.7-.7-1.2-.9c-.4-.2-.9-.3-1.4-.3s-1 .1-1.4.3-.8.5-1.2.9a5.3 5.3 0 0 0-.8 1.5c-.2.6-.3 1.3-.3 2.1s.1 1.5.3 2.1.4 1.1.8 1.5a2.73 2.73 0 0 0 1.2.9c.4.2.9.3 1.4.3s1-.1 1.4-.3.8-.5 1.2-.9a5.3 5.3 0 0 0 .8-1.5c.2-.6.3-1.3.3-2.1z"/>
    <path id="C" d="M179.1 87.7c-.6 0-1.1.1-1.7.3-.5.2-1 .5-1.3.9-.4.4-.7.9-.9 1.6-.2.6-.3 1.3-.3 2.2 0 .8.1 1.5.3 2.1s.5 1.1.9 1.5.8.7 1.4.9c.5.2 1.1.3 1.8.3h.6c.2 0 .4 0 .6-.1.2 0 .4-.1.6-.1s.4-.1.5-.2v1.3c-.3.1-.7.2-1.1.3s-.8.1-1.3.1c-.9 0-1.7-.1-2.3-.4-.7-.3-1.3-.7-1.7-1.2-.5-.5-.8-1.1-1-1.9-.2-.7-.4-1.6-.4-2.5s.1-1.8.4-2.5c.3-.8.6-1.4 1.1-2s1-1 1.7-1.3 1.4-.5 2.3-.5h.7c.2 0 .4 0 .6.1.2 0 .4.1.6.1.2.1.3.1.4.2v1.3c-.3-.1-.7-.2-1.1-.3s-1-.2-1.4-.2z"/></defs>
  </symbol>

  <symbol id="icon-mail" viewBox="0 6 17 2">
    <path d="M15.6,11.6H1.4V5.8H0V13h17V5.8h-1.4V11.6z M0,0v2.3l8.5,7.1L17,2.3V0H0z M15.6,1.6L8.5,7.5L1.4,1.6V1.4h14.2L15.6,1.6z"/>
  </symbol>

  <symbol id="icon-phone" viewBox="0 0 20 20">
    <path d="M17.9,9.4H9.4v1.2h8.5l-2.1,2.1l0.9,0.9l3.1-3.1c0.2-0.2,0.2-0.6,0-0.9l-3.1-3.1l-0.9,0.9L17.9,9.4z"/>
   <path d="M8.1,19.4v-6.2c0-0.3-0.3-0.6-0.6-0.6H4.4l0,0H3.1l0,0c0,0.7,0.6,1.2,1.2,1.2h2.5v5H3.1c-1,0.1-1.8-0.7-1.9-1.7
      c0-0.1,0-0.1,0-0.2V3.1c0-1,0.8-1.8,1.7-1.8c0.1,0,0.1,0,0.2,0h3.7v5H4.4c-0.7,0-1.2,0.6-1.2,1.2h4.4c0.3,0,0.6-0.3,0.6-0.6V0.6
      C8.1,0.3,7.8,0,7.5,0H3.1C1.5-0.1,0.1,1.2,0,2.9C0,3,0,3.1,0,3.1v13.7c-0.1,1.7,1.2,3.1,2.9,3.1c0.1,0,0.2,0,0.2,0h4.4
      C7.8,20,8.1,19.7,8.1,19.4z"/>
  </symbol>
</svg>
