<svg style="dispaly:none" baseProfile="full" xmlns="http://www.w3.org/2000/svg" xmlns:xlink="http://www.w3.org/1999/xlink" xmlns:ev="http://www.w3.org/2001/xml-events">

<symbol id="time" viewBox="0 0 511.99 511.99">
	<path d="m511 279.65c-4.597-46.238-25.254-89.829-58.168-122.74-28.128-28.127-62.556-46.202-98.782-54.239v-25.408c14.796-3.681 25.794-17.074 25.794-32.993 0-18.748-15.252-34-34-34h-72c-18.748 0-34 15.252-34 34 0 15.918 10.998 29.311 25.793 32.993v25.479c-36.115 8.071-70.429 26.121-98.477 54.169-6.138 6.138-11.798 12.577-16.979 19.269-0.251-0.019-0.502-0.038-0.758-0.038h-71.261c-5.522 0-10 4.477-10 10s4.478 10 10 10h58.412c-7.332 12.275-13.244 25.166-17.744 38.436h-108.84c-5.522 0-10 4.477-10 10s4.478 10 10 10h103.18c-2.882 12.651-4.536 25.526-4.963 38.437h-44.221c-5.522 0-10 4.477-10 10s4.478 10 10 10h44.54c0.844 12.944 2.925 25.82 6.244 38.437h-64.784c-5.522 0-10 4.477-10 10s4.478 10 10 10h71.166c9.81 25.951 25.141 50.274 45.999 71.132 32.946 32.946 76.582 53.608 122.87 58.181 6.606 0.652 13.217 0.975 19.819 0.975 39.022 0 77.548-11.293 110.24-32.581 4.628-3.014 5.937-9.209 2.923-13.837s-9.209-5.937-13.837-2.923c-71.557 46.597-167.39 36.522-227.87-23.957-70.962-70.962-70.962-186.42 0-257.39 70.961-70.961 186.42-70.961 257.39 0 60.399 60.4 70.529 156.15 24.086 227.67-3.008 4.632-1.691 10.826 2.94 13.833 4.634 3.008 10.826 1.691 13.833-2.941 24.814-38.215 35.984-84.37 31.452-129.96zm-251.16-235.38c0-7.72 6.28-14 14-14h72c7.72 0 14 6.28 14 14s-6.28 14-14 14h-72c-7.72 0-14-6.281-14-14zm25.793 55.033v-21.033h48.413v20.997c-16.076-1.912-32.34-1.9-48.413 0.036z"/>
	<path d="m445.77 425.5c-2.64 0-5.21 1.07-7.069 2.93-1.87 1.86-2.931 4.44-2.931 7.07s1.061 5.21 2.931 7.07c1.859 1.87 4.43 2.93 7.069 2.93 2.63 0 5.2-1.06 7.07-2.93 1.86-1.86 2.93-4.44 2.93-7.07s-1.069-5.21-2.93-7.07c-1.87-1.86-4.441-2.93-7.07-2.93z"/>
	<path d="m310 144.61c-85.538 0-155.13 69.59-155.13 155.13s69.591 155.13 155.13 155.13 155.13-69.59 155.13-155.13-69.591-155.13-155.13-155.13zm0 290.26c-74.511 0-135.13-60.619-135.13-135.13s60.618-135.13 135.13-135.13 135.13 60.619 135.13 135.13-60.618 135.13-135.13 135.13z"/>
	<path d="m373.26 222.34-49.53 49.529c-4.142-2.048-8.801-3.205-13.726-3.205-4.926 0-9.584 1.157-13.726 3.205l-22.167-22.167c-3.906-3.905-10.236-3.905-14.143 0-3.905 3.905-3.905 10.237 0 14.142l22.167 22.167c-2.049 4.142-3.205 8.801-3.205 13.726 0 17.134 13.939 31.074 31.074 31.074s31.074-13.94 31.074-31.074c0-4.925-1.157-9.584-3.205-13.726l49.529-49.529c3.905-3.905 3.905-10.237 0-14.142s-10.235-3.905-14.142 0zm-63.256 88.472c-6.106 0-11.074-4.968-11.074-11.074s4.968-11.074 11.074-11.074 11.074 4.968 11.074 11.074-4.968 11.074-11.074 11.074z"/>
	<path d="m416.92 289.86h-9.265c-5.522 0-10 4.477-10 10s4.478 10 10 10h9.265c5.522 0 10-4.477 10-10s-4.478-10-10-10z"/>
	<path d="m212.35 289.62h-9.264c-5.522 0-10 4.477-10 10s4.478 10 10 10h9.264c5.522 0 10-4.477 10-10s-4.478-10-10-10z"/>
	<path d="m310.12 212.08c5.522 0 10-4.477 10-10v-9.264c0-5.523-4.478-10-10-10s-10 4.477-10 10v9.264c0 5.523 4.478 10 10 10z"/>
	<path d="m309.88 387.39c-5.522 0-10 4.477-10 10v9.264c0 5.523 4.478 10 10 10s10-4.477 10-10v-9.264c0-5.523-4.478-10-10-10z"/>
	<path d="m10 351.44c-2.63 0-5.21 1.07-7.07 2.93s-2.93 4.44-2.93 7.07c0 2.64 1.069 5.21 2.93 7.07s4.44 2.93 7.07 2.93 5.21-1.07 7.069-2.93c1.86-1.86 2.931-4.44 2.931-7.07s-1.07-5.21-2.931-7.07c-1.859-1.86-4.439-2.93-7.069-2.93z"/>
</symbol>

<symbol id="price" viewBox="0 -27 512 512">
  <path d="m478 79.473h-20.02l0.019531-35.789c0.011719-24.027-19.523-43.586-43.555-43.598l-151.94-0.085938h-0.019531c-8.6484 0-16.781 3.3672-22.898 9.4844l-226.83 226.83c-8.2305 8.2305-12.762 19.172-12.762 30.812s4.5312 22.582 12.762 30.812l147.2 147.2c8.4961 8.4961 19.656 12.742 30.812 12.742 11.16 0 22.32-4.2461 30.816-12.742l142.81-142.81c3.9062-3.9062 3.9062-10.238 0-14.141-3.9062-3.9062-10.238-3.9062-14.145 0l-142.81 142.81c-9.1914 9.1914-24.148 9.1914-33.34 0l-147.2-147.2c-4.4531-4.4531-6.9062-10.375-6.9062-16.672s2.4531-12.219 6.9062-16.672l226.82-226.82c2.3398-2.3398 5.4492-3.6289 8.7578-3.6289h0.007813l151.94 0.085938c13 0.003906 23.574 10.59 23.566 23.59l-0.046875 83.797h-45.043c-3.8789 0-7.3906-1.5859-9.9297-4.1406 4.1836-1.793 8.1055-4.3828 11.516-7.793 14.371-14.375 14.371-37.758 0-52.129-14.375-14.375-37.758-14.375-52.133 0-14.371 14.371-14.371 37.754 0 52.129 5.3281 5.3281 11.898 8.6758 18.785 10.055 4.8945 12.777 17.281 21.879 31.762 21.879h45.031l-0.027344 47.938c0 3.3086-1.2891 6.4141-3.6289 8.75l-27.453 27.457c-3.9062 3.9062-3.9062 10.238 0 14.145 3.9023 3.9023 10.234 3.9023 14.141 0l27.457-27.457c6.1094-6.1133 9.4805-14.238 9.4844-22.883l0.027344-47.949h20.059c18.746 0 34-15.25 34-34 0-18.746-15.254-34-34-34zm-121.49-1.9219c3.2891-3.2891 7.6055-4.9297 11.926-4.9297 4.3164 0 8.6328 1.6445 11.922 4.9297 1.0391 1.043 1.8984 2.1953 2.6094 3.4102-10.977 3.3633-19.602 12.148-22.754 23.219-1.3242-0.73828-2.5781-1.6562-3.7031-2.7812-6.5742-6.5781-6.5742-17.273 0-23.848zm121.49 49.922h-20.047l0.015625-28h20.031c7.7188 0 14 6.2812 14 14s-6.2812 14-14 14z"/>
  <path d="m161.41 252.3c1.2305 4.4258 5.25 7.3203 9.625 7.3203 0.89063 0 1.793-0.11719 2.6875-0.36719l102.66-28.574c5.3203-1.4805 8.4336-6.9961 6.9531-12.316-1.4805-5.3164-6.9922-8.4297-12.316-6.9492l-102.66 28.57c-5.3164 1.4844-8.4297 6.9961-6.9492 12.316z"/>
  <path d="m206.6 265.5c-5.5703 5.5703-8.6367 12.973-8.6367 20.852 0 7.875 3.0664 15.277 8.6367 20.848 5.75 5.7461 13.297 8.6211 20.848 8.6211s15.102-2.875 20.852-8.6211c11.496-11.496 11.496-30.203 0-41.699-11.496-11.496-30.203-11.496-41.699 0zm27.555 27.555c-3.6992 3.6992-9.7148 3.6992-13.414 0-1.793-1.7891-2.7773-4.1719-2.7773-6.707 0-2.5312 0.98828-4.9141 2.7773-6.707 1.8516-1.8477 4.2812-2.7734 6.707-2.7734 2.4297 0 4.8594 0.92578 6.707 2.7734 3.6992 3.6992 3.6992 9.7188 0 13.414z"/>
  <path d="m253.25 205.96c11.496-11.5 11.496-30.203 0-41.699-5.5703-5.5703-12.977-8.6367-20.852-8.6367s-15.281 3.0664-20.848 8.6367c-11.496 11.496-11.496 30.199 0 41.699 5.75 5.7461 13.297 8.6211 20.848 8.6211 7.5508 0 15.102-2.875 20.852-8.6211zm-27.559-27.559c1.793-1.793 4.1758-2.7773 6.707-2.7773 2.5352 0 4.918 0.98438 6.707 2.7773 3.6992 3.6992 3.6992 9.7148 0 13.414-3.6953 3.6992-9.7148 3.6992-13.414 0-3.6953-3.6992-3.6953-9.7148 0-13.414z"/>
  <path d="m99.461 231.64c-3.9062-3.9062-10.238-3.9062-14.145 0l-28.414 28.414c-1.875 1.875-2.9297 4.418-2.9297 7.0703s1.0547 5.1953 2.9297 7.0703l126.81 126.81c1.9492 1.9492 4.5117 2.9258 7.0703 2.9258s5.1172-0.97656 7.0703-2.9258l189.59-189.6c3.9062-3.9062 3.9062-10.238 0-14.145l-126.8-126.8c-1.875-1.875-4.418-2.9297-7.0703-2.9297-2.6523 0-5.1953 1.0547-7.0703 2.9297l-104.61 104.61c-3.9062 3.9062-3.9062 10.238 0 14.145 3.9023 3.9023 10.234 3.9023 14.141 0l97.543-97.543 112.66 112.66-175.45 175.45-112.66-112.66 21.344-21.344c3.9023-3.9062 3.9062-10.234 0-14.141z"/>
  <path d="m385.62 256.97c-2.6328 0-5.2109 1.0703-7.0703 2.9297s-2.9297 4.4414-2.9297 7.0703 1.0703 5.2109 2.9297 7.0703 4.4375 2.9297 7.0703 2.9297c2.6289 0 5.207-1.0703 7.0703-2.9297 1.8594-1.8594 2.9297-4.4414 2.9297-7.0703s-1.0703-5.2109-2.9297-7.0703c-1.8633-1.8594-4.4414-2.9297-7.0703-2.9297z"/>
  <path d="m127.74 217.49c1.8711-1.8594 2.9336-4.4297 2.9336-7.0703 0-2.6289-1.0625-5.1992-2.9336-7.0703-1.8594-1.8594-4.4297-2.9297-7.0664-2.9297-2.6328 0-5.2109 1.0703-7.0703 2.9297-1.8633 1.8594-2.9297 4.4414-2.9297 7.0703 0 2.6406 1.0664 5.2109 2.9297 7.0703 1.8672 1.8711 4.4375 2.9297 7.0703 2.9297 2.6367 0 5.207-1.0586 7.0664-2.9297z"/>
</symbol>

<symbol id="size" viewBox="0 0 55.343 55.343">
	<path d="m10.485 7.094h3.587c1.657 0 3-1.343 3-3s-1.343-3-3-3h-10.83c-9e-3 0-0.018 2e-3 -0.027 3e-3 -0.188 1e-3 -0.375 0.02-0.56 0.056-0.09 0.018-0.174 0.052-0.262 0.078-0.1 0.029-0.202 0.053-0.299 0.093-0.1 0.042-0.191 0.098-0.285 0.15-0.077 0.042-0.157 0.076-0.231 0.126-0.162 0.108-0.312 0.23-0.449 0.367-2e-3 3e-3 -6e-3 4e-3 -8e-3 7e-3 -6e-3 6e-3 -9e-3 0.013-0.015 0.019-0.034 0.035-0.061 0.077-0.094 0.114-0.616 0.55-1.011 1.341-1.011 2.231v10.83c0 1.657 1.343 3 3 3s3-1.343 3-3v-4.072l10.124 10.122c0.585 0.585 1.354 0.878 2.121 0.878s1.536-0.293 2.122-0.879c1.171-1.171 1.171-3.071 0-4.243l-9.883-9.88z"/>
	<path d="m16.125 34.124-10.125 10.125v-4.072c0-1.657-1.343-3-3-3s-3 1.343-3 3v10.83c0 0.891 0.396 1.682 1.011 2.23 0.17 0.19 0.355 0.365 0.568 0.507 0.071 0.048 0.148 0.08 0.222 0.121 0.097 0.054 0.191 0.111 0.294 0.154 0.098 0.041 0.199 0.063 0.3 0.094 0.087 0.025 0.17 0.059 0.26 0.076 0.194 0.039 0.391 0.06 0.587 0.06h10.83c1.657 0 3-1.343 3-3s-1.343-3-3-3h-3.588l9.883-9.883c1.172-1.171 1.172-3.071 0-4.242-1.171-1.172-3.071-1.172-4.242 0z"/>
	<path d="m52.342 37.177c-1.657 0-3 1.343-3 3v4.072l-10.125-10.125c-1.172-1.172-3.07-1.172-4.242 0-1.172 1.171-1.172 3.071 0 4.242l9.883 9.883h-3.588c-1.657 0-3 1.343-3 3s1.343 3 3 3h10.83c0.196 0 0.394-0.021 0.587-0.06 0.093-0.018 0.178-0.052 0.268-0.079 0.098-0.029 0.197-0.051 0.292-0.09 0.107-0.045 0.206-0.105 0.308-0.162 0.069-0.039 0.142-0.068 0.208-0.113 0.213-0.143 0.399-0.316 0.569-0.508 0.615-0.549 1.011-1.34 1.011-2.23v-10.83c-1e-3 -1.657-1.344-3-3.001-3z"/>
	<path d="m36.975 22.099c0.768 0 1.535-0.293 2.121-0.879l10.125-10.125v4.072c0 1.657 1.343 3 3 3s3-1.343 3-3v-10.831c0-0.89-0.396-1.682-1.012-2.231-0.169-0.19-0.355-0.365-0.567-0.507-0.069-0.046-0.144-0.077-0.215-0.117-0.1-0.055-0.195-0.115-0.302-0.159-0.097-0.04-0.197-0.063-0.297-0.092-0.087-0.026-0.171-0.06-0.263-0.078-0.193-0.039-0.39-0.059-0.587-0.059h-10.83c-1.657 0-3 1.343-3 3s1.343 3 3 3h3.588l-9.883 9.883c-1.172 1.171-1.172 3.071 0 4.242 0.587 0.587 1.354 0.881 2.122 0.881z"/>
</symbol>

</svg>



